<svg fill="none" xmlns="http://www.w3.org/2000/svg" viewBox="0 0 13 13">
	<path
		d="M9.481 0H3.519A3.523 3.523 0 000 3.519v5.962A3.523 3.523 0 003.519 13h5.962A3.523 3.523 0 0013 9.481V3.52A3.523 3.523 0 009.481 0zM6.5 10.055A3.559 3.559 0 012.945 6.5 3.559 3.559 0 016.5 2.945 3.559 3.559 0 0110.055 6.5 3.559 3.559 0 016.5 10.055zm3.64-6.271a1.051 1.051 0 010-2.101 1.052 1.052 0 010 2.1z"
		fill="#909090"
	/>
	<path
		d="M6.5 3.707A2.796 2.796 0 003.708 6.5 2.796 2.796 0 006.5 9.292 2.796 2.796 0 009.292 6.5 2.796 2.796 0 006.5 3.707zM10.14 2.445a.289.289 0 100 .578.289.289 0 000-.578z"
		fill="#909090"
	/>
</svg>
